<svg width="138" height="51" viewBox="0 0 138 51" fill="none" xmlns="http://www.w3.org/2000/svg">
<g clipPath="url(#clip0_112_10466)">
<path fill-rule="evenodd" clip-rule="evenodd" d="M41.595 6.11054C40.1946 4.4105 37.6534 4.22439 36.0133 5.66567L30.7729 10.2732C29.7334 11.187 28.1618 11.187 27.1218 10.2732L21.8815 5.66567C20.2418 4.22439 17.7006 4.41096 16.2993 6.11054C14.9874 7.70389 15.2579 10.0553 16.8122 11.4217L22.4929 16.4161C24.1385 17.8628 25.0795 19.9323 25.0795 22.1049V30.8071C25.0795 32.858 26.6801 34.623 28.761 34.7201C30.9818 34.8227 32.8148 33.0795 32.8148 30.9142V22.1058C32.8148 19.9332 33.7558 17.8637 35.4023 16.417L41.0821 11.4217C42.6359 10.0562 42.9069 7.70389 41.595 6.11054Z" fill="#00959C"/>
<path fill-rule="evenodd" clip-rule="evenodd" d="M46.6135 34.7245C40.4897 34.7245 35.5068 29.8173 35.5068 23.7843C35.5068 17.7532 40.4893 12.846 46.6135 12.846C52.7372 12.846 57.7198 17.7532 57.7198 23.7848C57.7198 29.8168 52.7377 34.7249 46.6139 34.7249M46.6139 20.4651C44.755 20.4651 43.2429 21.954 43.2429 23.7848C43.2429 25.6155 44.7546 27.1054 46.6135 27.1054C48.4719 27.1054 49.984 25.6155 49.984 23.7848C49.984 21.9545 48.4728 20.4651 46.6139 20.4651ZM22.36 23.728C22.3409 17.7132 17.3666 12.8242 11.2542 12.8242C5.13041 12.8242 0.146973 17.7314 0.146973 23.7643C0.146973 29.7955 5.12995 34.7031 11.2542 34.7031C13.602 34.7031 15.78 33.98 17.5758 32.7511C17.791 33.8488 18.7706 34.6791 19.9486 34.6791C21.2832 34.6791 22.3659 33.6123 22.3659 32.2981V23.8501C22.3659 23.8093 22.3622 23.7698 22.36 23.7294M11.2542 27.0841C9.39524 27.0841 7.88314 25.5951 7.88314 23.7643C7.88314 21.9336 9.39479 20.4442 11.2542 20.4442C13.1126 20.4442 14.6247 21.9331 14.6247 23.7643C14.6247 25.5951 13.1131 27.0841 11.2542 27.0841ZM45.677 38.2848L42.345 36.9524C41.5996 36.6546 40.7485 37.0083 40.4452 37.7432C40.142 38.4786 40.502 39.3166 41.2487 39.6157L41.4507 39.6961C37.9744 41.437 33.5316 42.418 28.9477 42.418C22.8847 42.418 17.2885 40.7819 13.5929 37.9293C12.9587 37.44 12.0413 37.5494 11.5447 38.1745C11.0476 38.7986 11.1588 39.7015 11.793 40.1909C15.992 43.433 22.2447 45.2919 28.9477 45.2919C33.8889 45.2919 38.5623 44.2923 42.39 42.4502C42.153 43.1615 42.5112 43.9423 43.2261 44.2283C43.4059 44.3009 43.5916 44.3345 43.7745 44.3345C44.351 44.3345 44.8971 43.9959 45.1273 43.438L46.48 40.1559C46.7828 39.4205 46.4228 38.583 45.6765 38.2843" fill="#00959C"/>
</g>
<path d="M69 0V50.1612" stroke="#00959C" strokeWidth="1.36184"/>
<g clipPath="url(#clip1_112_10466)">
<path d="M104.357 20.1982V29.6403H101.775V24.3443L100.05 26.8965H98.6982L96.8017 24.3443V29.6403H94.4412V20.1982H96.8219L99.5455 23.9004L101.987 20.1982H104.357ZM105.104 22.3368V20.1982H113.921V22.3368H110.834V29.6403H108.201V22.3368H105.104ZM123.635 20.1982V29.6403H121.466L117.028 24.2434V29.6403H114.667V20.1982H117.017L121.264 25.4035V20.1982H123.635Z" fill="#F6C601"/>
<path d="M108.947 39.5062C101.321 39.5062 94.1285 38.0838 88.7014 35.4912C83.022 32.7776 79.8948 29.0855 79.8948 25.0807C79.8948 21.0759 83.022 17.3838 88.7014 14.6702C94.1285 12.0776 101.321 10.6553 108.947 10.6553C116.574 10.6553 123.766 12.0776 129.193 14.6702C134.873 17.3838 138 21.0759 138 25.0807C138 29.0855 134.873 32.7776 129.193 35.4912C123.766 38.0838 116.574 39.5062 108.947 39.5062ZM108.947 12.7838C101.624 12.7838 94.7641 14.1355 89.6193 16.5969C84.7268 18.9373 82.0233 21.9535 82.0233 25.0908C82.0233 28.2281 84.7167 31.2443 89.6193 33.5746C94.7641 36.036 101.634 37.3877 108.947 37.3877C116.261 37.3877 123.131 36.036 128.275 33.5746C133.168 31.2443 135.872 28.218 135.872 25.0908C135.872 21.9636 133.178 18.9373 128.275 16.607C123.131 14.1355 116.271 12.7838 108.947 12.7838Z" fill="#F6C601"/>
</g>
<defs>
<clipPath id="clip0_112_10466">
<rect width="58.1053" height="40.8553" fill="white" transform="translate(0 4.65332)"/>
</clipPath>
<clipPath id="clip1_112_10466">
<rect width="58.1053" height="28.8509" fill="white" transform="translate(79.8948 10.6553)"/>
</clipPath>
</defs>
</svg>
