<svg id="Layer_1" data-name="Layer 1" xmlns="http://www.w3.org/2000/svg" viewBox="0 0 34.31 19.44"><defs><style>.cls-1,.cls-2,.cls-3{fill:#ed1c24;}.cls-2,.cls-3,.cls-4{stroke:#ed1c24;}.cls-10,.cls-2{stroke-width:0.25px;}.cls-3{stroke-width:0.5px;}.cls-10,.cls-4,.cls-5{fill:none;}.cls-10,.cls-4{stroke-miterlimit:10;}.cls-4{stroke-width:0.75px;}.cls-6{font-size:8.62px;letter-spacing:-0.06em;}.cls-6,.cls-7{font-family:GalanoGrotesqueDEMO-Bold, Galano Grotesque DEMO;font-weight:700;}.cls-7{font-size:1.05px;}.cls-8{letter-spacing:-0.01em;}.cls-9{letter-spacing:0em;}.cls-10{stroke:#231f20;}</style></defs><title>udll</title><path class="cls-1" d="M14.48,1.16v9.33a7.83,7.83,0,0,1-1.7,5.39,5.77,5.77,0,0,1-4.52,1.79,5.87,5.87,0,0,1-4.53-1.79A8.15,8.15,0,0,1,2,10.31l.07-.9a11.36,11.36,0,0,0-.38,2.29,7.17,7.17,0,0,0,1.66,4.53,6.36,6.36,0,0,0,4.88,1.92,6.39,6.39,0,0,0,4.91-1.92A8.08,8.08,0,0,0,15,10.47V1.16Z"/><path class="cls-2" d="M13.53,2.23v7.93a6.6,6.6,0,0,1-1.44,4.56,4.91,4.91,0,0,1-3.84,1.52,5,5,0,0,1-3.84-1.52,6.55,6.55,0,0,1-1.48-4.58V7.87a7.2,7.2,0,0,0-.44.88v1.39A6.85,6.85,0,0,0,4.09,15a5.42,5.42,0,0,0,4.14,1.62A5.42,5.42,0,0,0,12.39,15,6.92,6.92,0,0,0,14,10.14V2.23Z"/><path class="cls-2" d="M12.58,3.43v6.5a5.42,5.42,0,0,1-1.18,3.75,4,4,0,0,1-3.15,1.24A4.05,4.05,0,0,1,5.1,13.68,5.3,5.3,0,0,1,3.88,9.92v-3l-.32.33V9.92a5.59,5.59,0,0,0,1.32,4,4.42,4.42,0,0,0,3.38,1.33,4.47,4.47,0,0,0,3.41-1.33,5.7,5.7,0,0,0,1.29-4V3.43Z"/><path class="cls-2" d="M11.57,4.57v5a4.2,4.2,0,0,1-.91,2.9,3.14,3.14,0,0,1-2.45,1,3.16,3.16,0,0,1-2.44-1,4.12,4.12,0,0,1-.94-2.91V6l-.26.21V9.59a4.32,4.32,0,0,0,1,3.1,3.45,3.45,0,0,0,2.64,1,3.46,3.46,0,0,0,2.65-1,4.4,4.4,0,0,0,1-3.1v-5Z"/><path class="cls-3" d="M10.69,5.51V9.26A3.11,3.11,0,0,1,10,11.42a2.26,2.26,0,0,1-1.8.72,2.31,2.31,0,0,1-1.8-.72,3.08,3.08,0,0,1-.7-2.17V5.51H5.52V9.25a3.2,3.2,0,0,0,.76,2.31,2.55,2.55,0,0,0,2,.77,2.58,2.58,0,0,0,2-.77,3.3,3.3,0,0,0,.74-2.31V5.51Z"/><path class="cls-4" d="M10.79,5.63a6.34,6.34,0,1,1-5.18,0"/><path class="cls-1" d="M12.7,17.57l2.75-.49L15,14.32A5.94,5.94,0,0,1,12.7,17.57Z"/><rect class="cls-5" x="-13.15" y="-22.68" width="63.08" height="63.08"/><text class="cls-6" transform="translate(16.72 13.04)">UDL</text><text class="cls-7" transform="translate(17.76 15.01)">Bringing thoughts <tspan class="cls-8" x="9.58" y="0">t</tspan><tspan class="cls-9" x="10.02" y="0">o reality</tspan></text><line class="cls-10" x1="20.41" y1="13.66" x2="28.48" y2="13.66"/></svg>